<mxfile host="app.diagrams.net" modified="2024-01-14T10:54:31.392Z" agent="Mozilla/5.0 (Windows NT 10.0; Win64; x64) AppleWebKit/537.36 (KHTML, like Gecko) Chrome/120.0.0.0 Safari/537.36" etag="AbRAr-48T0gHYXjjCKXf" version="22.1.18" type="device">
  <diagram id="R2lEEEUBdFMjLlhIrx00" name="Page-1">
    <mxGraphModel dx="1050" dy="565" grid="1" gridSize="10" guides="1" tooltips="1" connect="1" arrows="1" fold="1" page="1" pageScale="1" pageWidth="850" pageHeight="1100" math="0" shadow="0" extFonts="Permanent Marker^https://fonts.googleapis.com/css?family=Permanent+Marker">
      <root>
        <mxCell id="0" />
        <mxCell id="1" parent="0" />
        <mxCell id="r8o9SLYS6LZvqiN1Q-9b-1" value="&lt;font style=&quot;font-size: 20px;&quot;&gt;users&lt;/font&gt;" style="rounded=0;whiteSpace=wrap;html=1;fontSize=20;" vertex="1" parent="1">
          <mxGeometry x="180" y="220" width="200" height="80" as="geometry" />
        </mxCell>
        <mxCell id="r8o9SLYS6LZvqiN1Q-9b-2" value="&lt;font style=&quot;font-size: 20px;&quot;&gt;id&lt;/font&gt;" style="ellipse;whiteSpace=wrap;html=1;" vertex="1" parent="1">
          <mxGeometry x="260" y="130" width="100" height="60" as="geometry" />
        </mxCell>
        <mxCell id="r8o9SLYS6LZvqiN1Q-9b-4" value="&lt;font style=&quot;font-size: 20px;&quot;&gt;username&lt;/font&gt;" style="ellipse;whiteSpace=wrap;html=1;" vertex="1" parent="1">
          <mxGeometry x="145" y="130" width="100" height="60" as="geometry" />
        </mxCell>
        <mxCell id="r8o9SLYS6LZvqiN1Q-9b-5" value="&lt;span style=&quot;font-size: 20px;&quot;&gt;name&lt;br&gt;&lt;/span&gt;" style="ellipse;whiteSpace=wrap;html=1;" vertex="1" parent="1">
          <mxGeometry x="30" y="130" width="100" height="60" as="geometry" />
        </mxCell>
        <mxCell id="r8o9SLYS6LZvqiN1Q-9b-6" value="&lt;span style=&quot;font-size: 20px;&quot;&gt;password&lt;br&gt;&lt;/span&gt;" style="ellipse;whiteSpace=wrap;html=1;" vertex="1" parent="1">
          <mxGeometry x="30" y="200" width="100" height="60" as="geometry" />
        </mxCell>
        <mxCell id="r8o9SLYS6LZvqiN1Q-9b-7" value="&lt;span style=&quot;font-size: 20px;&quot;&gt;created_on&lt;br&gt;&lt;/span&gt;" style="ellipse;whiteSpace=wrap;html=1;" vertex="1" parent="1">
          <mxGeometry x="25" y="270" width="110" height="60" as="geometry" />
        </mxCell>
        <mxCell id="r8o9SLYS6LZvqiN1Q-9b-8" value="&lt;span style=&quot;font-size: 20px;&quot;&gt;is_active&lt;br&gt;&lt;/span&gt;" style="ellipse;whiteSpace=wrap;html=1;" vertex="1" parent="1">
          <mxGeometry x="30" y="340" width="100" height="60" as="geometry" />
        </mxCell>
        <mxCell id="r8o9SLYS6LZvqiN1Q-9b-9" value="&lt;span style=&quot;font-size: 20px;&quot;&gt;profile_pic&lt;br&gt;&lt;/span&gt;" style="ellipse;whiteSpace=wrap;html=1;" vertex="1" parent="1">
          <mxGeometry x="140" y="340" width="105" height="60" as="geometry" />
        </mxCell>
        <mxCell id="r8o9SLYS6LZvqiN1Q-9b-11" value="&lt;span style=&quot;font-size: 20px;&quot;&gt;role&lt;br&gt;&lt;/span&gt;" style="ellipse;whiteSpace=wrap;html=1;" vertex="1" parent="1">
          <mxGeometry x="260" y="340" width="100" height="60" as="geometry" />
        </mxCell>
        <mxCell id="r8o9SLYS6LZvqiN1Q-9b-12" value="restaurants" style="rounded=0;whiteSpace=wrap;html=1;fontSize=20;" vertex="1" parent="1">
          <mxGeometry x="760" y="215" width="200" height="80" as="geometry" />
        </mxCell>
        <mxCell id="r8o9SLYS6LZvqiN1Q-9b-14" value="&lt;font style=&quot;font-size: 20px;&quot;&gt;id&lt;/font&gt;" style="ellipse;whiteSpace=wrap;html=1;" vertex="1" parent="1">
          <mxGeometry x="770" y="125" width="100" height="60" as="geometry" />
        </mxCell>
        <mxCell id="r8o9SLYS6LZvqiN1Q-9b-15" value="&lt;span style=&quot;font-size: 20px;&quot;&gt;name&lt;br&gt;&lt;/span&gt;" style="ellipse;whiteSpace=wrap;html=1;" vertex="1" parent="1">
          <mxGeometry x="1027.5" y="125" width="100" height="60" as="geometry" />
        </mxCell>
        <mxCell id="r8o9SLYS6LZvqiN1Q-9b-16" value="&lt;span style=&quot;font-size: 20px;&quot;&gt;address&lt;br&gt;&lt;/span&gt;" style="ellipse;whiteSpace=wrap;html=1;" vertex="1" parent="1">
          <mxGeometry x="1027.5" y="200" width="100" height="60" as="geometry" />
        </mxCell>
        <mxCell id="r8o9SLYS6LZvqiN1Q-9b-17" value="&lt;span style=&quot;font-size: 20px;&quot;&gt;owner_id&lt;br&gt;&lt;/span&gt;" style="ellipse;whiteSpace=wrap;html=1;" vertex="1" parent="1">
          <mxGeometry x="890" y="125" width="100" height="60" as="geometry" />
        </mxCell>
        <mxCell id="r8o9SLYS6LZvqiN1Q-9b-18" value="&lt;span style=&quot;font-size: 20px;&quot;&gt;rating&lt;br&gt;&lt;/span&gt;" style="ellipse;whiteSpace=wrap;html=1;" vertex="1" parent="1">
          <mxGeometry x="1027.5" y="340" width="100" height="60" as="geometry" />
        </mxCell>
        <mxCell id="r8o9SLYS6LZvqiN1Q-9b-19" value="&lt;span style=&quot;font-size: 20px;&quot;&gt;number_reviews&lt;br&gt;&lt;/span&gt;" style="ellipse;whiteSpace=wrap;html=1;" vertex="1" parent="1">
          <mxGeometry x="1000" y="270" width="155" height="60" as="geometry" />
        </mxCell>
        <mxCell id="r8o9SLYS6LZvqiN1Q-9b-20" value="&lt;span style=&quot;font-size: 20px;&quot;&gt;price_point&lt;br&gt;&lt;/span&gt;" style="ellipse;whiteSpace=wrap;html=1;" vertex="1" parent="1">
          <mxGeometry x="900" y="340" width="110" height="60" as="geometry" />
        </mxCell>
        <mxCell id="r8o9SLYS6LZvqiN1Q-9b-21" value="&lt;span style=&quot;font-size: 20px;&quot;&gt;image&lt;br&gt;&lt;/span&gt;" style="ellipse;whiteSpace=wrap;html=1;" vertex="1" parent="1">
          <mxGeometry x="770" y="335" width="100" height="60" as="geometry" />
        </mxCell>
        <mxCell id="r8o9SLYS6LZvqiN1Q-9b-22" value="reviews" style="rounded=0;whiteSpace=wrap;html=1;fontSize=20;" vertex="1" parent="1">
          <mxGeometry x="475" y="480" width="200" height="80" as="geometry" />
        </mxCell>
        <mxCell id="r8o9SLYS6LZvqiN1Q-9b-23" value="&lt;font style=&quot;font-size: 20px;&quot;&gt;id&lt;/font&gt;" style="ellipse;whiteSpace=wrap;html=1;" vertex="1" parent="1">
          <mxGeometry x="340" y="510" width="100" height="60" as="geometry" />
        </mxCell>
        <mxCell id="r8o9SLYS6LZvqiN1Q-9b-24" value="&lt;span style=&quot;font-size: 20px;&quot;&gt;user_id&lt;br&gt;&lt;/span&gt;" style="ellipse;whiteSpace=wrap;html=1;" vertex="1" parent="1">
          <mxGeometry x="370" y="590" width="100" height="60" as="geometry" />
        </mxCell>
        <mxCell id="r8o9SLYS6LZvqiN1Q-9b-25" value="&lt;span style=&quot;font-size: 20px;&quot;&gt;restaurant_id&lt;/span&gt;" style="ellipse;whiteSpace=wrap;html=1;" vertex="1" parent="1">
          <mxGeometry x="500" y="590" width="130" height="60" as="geometry" />
        </mxCell>
        <mxCell id="r8o9SLYS6LZvqiN1Q-9b-26" value="&lt;span style=&quot;font-size: 20px;&quot;&gt;description&lt;/span&gt;" style="ellipse;whiteSpace=wrap;html=1;" vertex="1" parent="1">
          <mxGeometry x="660" y="590" width="110" height="60" as="geometry" />
        </mxCell>
        <mxCell id="r8o9SLYS6LZvqiN1Q-9b-27" value="&lt;span style=&quot;font-size: 20px;&quot;&gt;stars&lt;/span&gt;" style="ellipse;whiteSpace=wrap;html=1;" vertex="1" parent="1">
          <mxGeometry x="700" y="510" width="100" height="60" as="geometry" />
        </mxCell>
        <mxCell id="r8o9SLYS6LZvqiN1Q-9b-29" value="" style="endArrow=none;html=1;rounded=0;exitX=1;exitY=0.5;exitDx=0;exitDy=0;entryX=0;entryY=0.5;entryDx=0;entryDy=0;" edge="1" parent="1" source="r8o9SLYS6LZvqiN1Q-9b-23" target="r8o9SLYS6LZvqiN1Q-9b-22">
          <mxGeometry width="50" height="50" relative="1" as="geometry">
            <mxPoint x="520" y="370" as="sourcePoint" />
            <mxPoint x="420" y="480" as="targetPoint" />
            <Array as="points" />
          </mxGeometry>
        </mxCell>
        <mxCell id="r8o9SLYS6LZvqiN1Q-9b-31" value="" style="endArrow=none;html=1;rounded=0;entryX=0;entryY=1;entryDx=0;entryDy=0;exitX=1;exitY=0;exitDx=0;exitDy=0;" edge="1" parent="1" source="r8o9SLYS6LZvqiN1Q-9b-24" target="r8o9SLYS6LZvqiN1Q-9b-22">
          <mxGeometry width="50" height="50" relative="1" as="geometry">
            <mxPoint x="410" y="560" as="sourcePoint" />
            <mxPoint x="460" y="510" as="targetPoint" />
          </mxGeometry>
        </mxCell>
        <mxCell id="r8o9SLYS6LZvqiN1Q-9b-32" value="" style="endArrow=none;html=1;rounded=0;entryX=0.5;entryY=1;entryDx=0;entryDy=0;exitX=0.5;exitY=0;exitDx=0;exitDy=0;" edge="1" parent="1" source="r8o9SLYS6LZvqiN1Q-9b-25" target="r8o9SLYS6LZvqiN1Q-9b-22">
          <mxGeometry width="50" height="50" relative="1" as="geometry">
            <mxPoint x="420" y="570" as="sourcePoint" />
            <mxPoint x="470" y="520" as="targetPoint" />
            <Array as="points" />
          </mxGeometry>
        </mxCell>
        <mxCell id="r8o9SLYS6LZvqiN1Q-9b-33" value="" style="endArrow=none;html=1;rounded=0;entryX=0.75;entryY=1;entryDx=0;entryDy=0;exitX=0;exitY=0;exitDx=0;exitDy=0;" edge="1" parent="1" source="r8o9SLYS6LZvqiN1Q-9b-26" target="r8o9SLYS6LZvqiN1Q-9b-22">
          <mxGeometry width="50" height="50" relative="1" as="geometry">
            <mxPoint x="630" y="550" as="sourcePoint" />
            <mxPoint x="620" y="520" as="targetPoint" />
          </mxGeometry>
        </mxCell>
        <mxCell id="r8o9SLYS6LZvqiN1Q-9b-34" value="" style="endArrow=none;html=1;rounded=0;entryX=1;entryY=0.5;entryDx=0;entryDy=0;exitX=0;exitY=0.5;exitDx=0;exitDy=0;" edge="1" parent="1" source="r8o9SLYS6LZvqiN1Q-9b-27" target="r8o9SLYS6LZvqiN1Q-9b-22">
          <mxGeometry width="50" height="50" relative="1" as="geometry">
            <mxPoint x="641" y="569" as="sourcePoint" />
            <mxPoint x="580" y="520" as="targetPoint" />
          </mxGeometry>
        </mxCell>
        <mxCell id="r8o9SLYS6LZvqiN1Q-9b-38" value="" style="endArrow=none;html=1;rounded=0;entryX=0.25;entryY=1;entryDx=0;entryDy=0;exitX=0.5;exitY=0;exitDx=0;exitDy=0;" edge="1" parent="1" source="r8o9SLYS6LZvqiN1Q-9b-21" target="r8o9SLYS6LZvqiN1Q-9b-12">
          <mxGeometry width="50" height="50" relative="1" as="geometry">
            <mxPoint x="705" y="340" as="sourcePoint" />
            <mxPoint x="755" y="290" as="targetPoint" />
          </mxGeometry>
        </mxCell>
        <mxCell id="r8o9SLYS6LZvqiN1Q-9b-40" value="" style="endArrow=none;html=1;rounded=0;entryX=1;entryY=0.75;entryDx=0;entryDy=0;exitX=0;exitY=0;exitDx=0;exitDy=0;" edge="1" parent="1" source="r8o9SLYS6LZvqiN1Q-9b-19" target="r8o9SLYS6LZvqiN1Q-9b-12">
          <mxGeometry width="50" height="50" relative="1" as="geometry">
            <mxPoint x="941" y="330" as="sourcePoint" />
            <mxPoint x="880" y="281" as="targetPoint" />
          </mxGeometry>
        </mxCell>
        <mxCell id="r8o9SLYS6LZvqiN1Q-9b-41" value="" style="endArrow=none;html=1;rounded=0;entryX=0.5;entryY=1;entryDx=0;entryDy=0;exitX=0;exitY=0;exitDx=0;exitDy=0;" edge="1" parent="1" source="r8o9SLYS6LZvqiN1Q-9b-20" target="r8o9SLYS6LZvqiN1Q-9b-12">
          <mxGeometry width="50" height="50" relative="1" as="geometry">
            <mxPoint x="870" y="349" as="sourcePoint" />
            <mxPoint x="809" y="300" as="targetPoint" />
          </mxGeometry>
        </mxCell>
        <mxCell id="r8o9SLYS6LZvqiN1Q-9b-42" value="" style="endArrow=none;html=1;rounded=0;entryX=0.75;entryY=1;entryDx=0;entryDy=0;exitX=0;exitY=0;exitDx=0;exitDy=0;" edge="1" parent="1" source="r8o9SLYS6LZvqiN1Q-9b-18" target="r8o9SLYS6LZvqiN1Q-9b-12">
          <mxGeometry width="50" height="50" relative="1" as="geometry">
            <mxPoint x="816" y="354" as="sourcePoint" />
            <mxPoint x="780" y="305" as="targetPoint" />
          </mxGeometry>
        </mxCell>
        <mxCell id="r8o9SLYS6LZvqiN1Q-9b-44" value="" style="endArrow=none;html=1;rounded=0;entryX=1;entryY=0.25;entryDx=0;entryDy=0;exitX=0;exitY=0.5;exitDx=0;exitDy=0;" edge="1" parent="1" source="r8o9SLYS6LZvqiN1Q-9b-16" target="r8o9SLYS6LZvqiN1Q-9b-12">
          <mxGeometry width="50" height="50" relative="1" as="geometry">
            <mxPoint x="943" y="289" as="sourcePoint" />
            <mxPoint x="880" y="285" as="targetPoint" />
          </mxGeometry>
        </mxCell>
        <mxCell id="r8o9SLYS6LZvqiN1Q-9b-45" value="" style="endArrow=none;html=1;rounded=0;entryX=1;entryY=0;entryDx=0;entryDy=0;exitX=0;exitY=1;exitDx=0;exitDy=0;" edge="1" parent="1" source="r8o9SLYS6LZvqiN1Q-9b-15" target="r8o9SLYS6LZvqiN1Q-9b-12">
          <mxGeometry width="50" height="50" relative="1" as="geometry">
            <mxPoint x="948" y="240" as="sourcePoint" />
            <mxPoint x="880" y="245" as="targetPoint" />
          </mxGeometry>
        </mxCell>
        <mxCell id="r8o9SLYS6LZvqiN1Q-9b-46" value="" style="endArrow=none;html=1;rounded=0;entryX=0.75;entryY=0;entryDx=0;entryDy=0;exitX=0.5;exitY=1;exitDx=0;exitDy=0;" edge="1" parent="1" source="r8o9SLYS6LZvqiN1Q-9b-17" target="r8o9SLYS6LZvqiN1Q-9b-12">
          <mxGeometry width="50" height="50" relative="1" as="geometry">
            <mxPoint x="962" y="186" as="sourcePoint" />
            <mxPoint x="880" y="225" as="targetPoint" />
          </mxGeometry>
        </mxCell>
        <mxCell id="r8o9SLYS6LZvqiN1Q-9b-47" value="" style="endArrow=none;html=1;rounded=0;entryX=0.5;entryY=0;entryDx=0;entryDy=0;exitX=0.5;exitY=1;exitDx=0;exitDy=0;" edge="1" parent="1" source="r8o9SLYS6LZvqiN1Q-9b-14" target="r8o9SLYS6LZvqiN1Q-9b-12">
          <mxGeometry width="50" height="50" relative="1" as="geometry">
            <mxPoint x="972" y="196" as="sourcePoint" />
            <mxPoint x="890" y="235" as="targetPoint" />
          </mxGeometry>
        </mxCell>
        <mxCell id="r8o9SLYS6LZvqiN1Q-9b-48" value="" style="endArrow=none;html=1;rounded=0;entryX=0.75;entryY=0;entryDx=0;entryDy=0;exitX=0.5;exitY=1;exitDx=0;exitDy=0;" edge="1" parent="1" source="r8o9SLYS6LZvqiN1Q-9b-2" target="r8o9SLYS6LZvqiN1Q-9b-1">
          <mxGeometry width="50" height="50" relative="1" as="geometry">
            <mxPoint x="982" y="206" as="sourcePoint" />
            <mxPoint x="900" y="245" as="targetPoint" />
          </mxGeometry>
        </mxCell>
        <mxCell id="r8o9SLYS6LZvqiN1Q-9b-49" value="" style="endArrow=none;html=1;rounded=0;entryX=0.5;entryY=0;entryDx=0;entryDy=0;exitX=1;exitY=1;exitDx=0;exitDy=0;" edge="1" parent="1" source="r8o9SLYS6LZvqiN1Q-9b-4" target="r8o9SLYS6LZvqiN1Q-9b-1">
          <mxGeometry width="50" height="50" relative="1" as="geometry">
            <mxPoint x="320" y="200" as="sourcePoint" />
            <mxPoint x="340" y="230" as="targetPoint" />
          </mxGeometry>
        </mxCell>
        <mxCell id="r8o9SLYS6LZvqiN1Q-9b-50" value="" style="endArrow=none;html=1;rounded=0;entryX=0.25;entryY=0;entryDx=0;entryDy=0;exitX=1;exitY=1;exitDx=0;exitDy=0;" edge="1" parent="1" source="r8o9SLYS6LZvqiN1Q-9b-5" target="r8o9SLYS6LZvqiN1Q-9b-1">
          <mxGeometry width="50" height="50" relative="1" as="geometry">
            <mxPoint x="240" y="191" as="sourcePoint" />
            <mxPoint x="290" y="230" as="targetPoint" />
          </mxGeometry>
        </mxCell>
        <mxCell id="r8o9SLYS6LZvqiN1Q-9b-51" value="" style="endArrow=none;html=1;rounded=0;entryX=0;entryY=0.25;entryDx=0;entryDy=0;exitX=1;exitY=0.5;exitDx=0;exitDy=0;" edge="1" parent="1" source="r8o9SLYS6LZvqiN1Q-9b-6" target="r8o9SLYS6LZvqiN1Q-9b-1">
          <mxGeometry width="50" height="50" relative="1" as="geometry">
            <mxPoint x="250" y="201" as="sourcePoint" />
            <mxPoint x="300" y="240" as="targetPoint" />
          </mxGeometry>
        </mxCell>
        <mxCell id="r8o9SLYS6LZvqiN1Q-9b-52" value="" style="endArrow=none;html=1;rounded=0;entryX=0;entryY=0.5;entryDx=0;entryDy=0;exitX=1;exitY=0.5;exitDx=0;exitDy=0;" edge="1" parent="1" source="r8o9SLYS6LZvqiN1Q-9b-7" target="r8o9SLYS6LZvqiN1Q-9b-1">
          <mxGeometry width="50" height="50" relative="1" as="geometry">
            <mxPoint x="140" y="240" as="sourcePoint" />
            <mxPoint x="190" y="250" as="targetPoint" />
          </mxGeometry>
        </mxCell>
        <mxCell id="r8o9SLYS6LZvqiN1Q-9b-53" value="" style="endArrow=none;html=1;rounded=0;entryX=0;entryY=0.75;entryDx=0;entryDy=0;exitX=1;exitY=0;exitDx=0;exitDy=0;" edge="1" parent="1" source="r8o9SLYS6LZvqiN1Q-9b-8" target="r8o9SLYS6LZvqiN1Q-9b-1">
          <mxGeometry width="50" height="50" relative="1" as="geometry">
            <mxPoint x="145" y="310" as="sourcePoint" />
            <mxPoint x="190" y="270" as="targetPoint" />
          </mxGeometry>
        </mxCell>
        <mxCell id="r8o9SLYS6LZvqiN1Q-9b-54" value="" style="endArrow=none;html=1;rounded=0;entryX=0.25;entryY=1;entryDx=0;entryDy=0;exitX=0.5;exitY=0;exitDx=0;exitDy=0;" edge="1" parent="1" source="r8o9SLYS6LZvqiN1Q-9b-9" target="r8o9SLYS6LZvqiN1Q-9b-1">
          <mxGeometry width="50" height="50" relative="1" as="geometry">
            <mxPoint x="125" y="359" as="sourcePoint" />
            <mxPoint x="190" y="290" as="targetPoint" />
          </mxGeometry>
        </mxCell>
        <mxCell id="r8o9SLYS6LZvqiN1Q-9b-55" value="" style="endArrow=none;html=1;rounded=0;entryX=0.5;entryY=1;entryDx=0;entryDy=0;exitX=0;exitY=0;exitDx=0;exitDy=0;" edge="1" parent="1" source="r8o9SLYS6LZvqiN1Q-9b-11" target="r8o9SLYS6LZvqiN1Q-9b-1">
          <mxGeometry width="50" height="50" relative="1" as="geometry">
            <mxPoint x="203" y="350" as="sourcePoint" />
            <mxPoint x="240" y="310" as="targetPoint" />
          </mxGeometry>
        </mxCell>
        <mxCell id="r8o9SLYS6LZvqiN1Q-9b-57" value="owns" style="rhombus;whiteSpace=wrap;html=1;fontSize=20;" vertex="1" parent="1">
          <mxGeometry x="520" y="140" width="80" height="80" as="geometry" />
        </mxCell>
        <mxCell id="r8o9SLYS6LZvqiN1Q-9b-58" value="reviews" style="rhombus;whiteSpace=wrap;html=1;fontSize=20;" vertex="1" parent="1">
          <mxGeometry x="520" y="240" width="80" height="80" as="geometry" />
        </mxCell>
        <mxCell id="r8o9SLYS6LZvqiN1Q-9b-60" value="" style="endArrow=none;html=1;rounded=0;entryX=0;entryY=0.5;entryDx=0;entryDy=0;exitX=1;exitY=0.5;exitDx=0;exitDy=0;" edge="1" parent="1" source="r8o9SLYS6LZvqiN1Q-9b-1" target="r8o9SLYS6LZvqiN1Q-9b-58">
          <mxGeometry width="50" height="50" relative="1" as="geometry">
            <mxPoint x="570" y="410" as="sourcePoint" />
            <mxPoint x="510" y="280" as="targetPoint" />
          </mxGeometry>
        </mxCell>
        <mxCell id="r8o9SLYS6LZvqiN1Q-9b-61" value="" style="endArrow=none;html=1;rounded=0;entryX=0;entryY=0.5;entryDx=0;entryDy=0;exitX=1;exitY=0.5;exitDx=0;exitDy=0;" edge="1" parent="1" source="r8o9SLYS6LZvqiN1Q-9b-1" target="r8o9SLYS6LZvqiN1Q-9b-57">
          <mxGeometry width="50" height="50" relative="1" as="geometry">
            <mxPoint x="390" y="270" as="sourcePoint" />
            <mxPoint x="530" y="290" as="targetPoint" />
          </mxGeometry>
        </mxCell>
        <mxCell id="r8o9SLYS6LZvqiN1Q-9b-62" value="" style="endArrow=none;html=1;rounded=0;entryX=1;entryY=0.5;entryDx=0;entryDy=0;exitX=0;exitY=0.5;exitDx=0;exitDy=0;" edge="1" parent="1" source="r8o9SLYS6LZvqiN1Q-9b-12" target="r8o9SLYS6LZvqiN1Q-9b-57">
          <mxGeometry width="50" height="50" relative="1" as="geometry">
            <mxPoint x="390" y="270" as="sourcePoint" />
            <mxPoint x="530" y="190" as="targetPoint" />
          </mxGeometry>
        </mxCell>
        <mxCell id="r8o9SLYS6LZvqiN1Q-9b-63" value="" style="endArrow=none;html=1;rounded=0;entryX=1;entryY=0.5;entryDx=0;entryDy=0;exitX=0;exitY=0.5;exitDx=0;exitDy=0;" edge="1" parent="1" source="r8o9SLYS6LZvqiN1Q-9b-12" target="r8o9SLYS6LZvqiN1Q-9b-58">
          <mxGeometry width="50" height="50" relative="1" as="geometry">
            <mxPoint x="770" y="265" as="sourcePoint" />
            <mxPoint x="610" y="190" as="targetPoint" />
          </mxGeometry>
        </mxCell>
        <mxCell id="r8o9SLYS6LZvqiN1Q-9b-64" value="makes" style="rhombus;whiteSpace=wrap;html=1;fontSize=20;" vertex="1" parent="1">
          <mxGeometry x="420" y="350" width="80" height="80" as="geometry" />
        </mxCell>
        <mxCell id="r8o9SLYS6LZvqiN1Q-9b-66" value="has" style="rhombus;whiteSpace=wrap;html=1;fontSize=20;" vertex="1" parent="1">
          <mxGeometry x="630" y="350" width="80" height="80" as="geometry" />
        </mxCell>
        <mxCell id="r8o9SLYS6LZvqiN1Q-9b-67" value="" style="endArrow=none;html=1;rounded=0;entryX=1;entryY=0;entryDx=0;entryDy=0;exitX=0;exitY=1;exitDx=0;exitDy=0;" edge="1" parent="1" source="r8o9SLYS6LZvqiN1Q-9b-12" target="r8o9SLYS6LZvqiN1Q-9b-66">
          <mxGeometry width="50" height="50" relative="1" as="geometry">
            <mxPoint x="760" y="300" as="sourcePoint" />
            <mxPoint x="620" y="360" as="targetPoint" />
          </mxGeometry>
        </mxCell>
        <mxCell id="r8o9SLYS6LZvqiN1Q-9b-68" value="" style="endArrow=none;html=1;rounded=0;exitX=0.5;exitY=0;exitDx=0;exitDy=0;entryX=0;entryY=1;entryDx=0;entryDy=0;" edge="1" parent="1" source="r8o9SLYS6LZvqiN1Q-9b-22" target="r8o9SLYS6LZvqiN1Q-9b-66">
          <mxGeometry width="50" height="50" relative="1" as="geometry">
            <mxPoint x="570" y="410" as="sourcePoint" />
            <mxPoint x="620" y="360" as="targetPoint" />
          </mxGeometry>
        </mxCell>
        <mxCell id="r8o9SLYS6LZvqiN1Q-9b-72" value="" style="endArrow=none;html=1;rounded=0;entryX=0.5;entryY=0;entryDx=0;entryDy=0;exitX=1;exitY=1;exitDx=0;exitDy=0;" edge="1" parent="1" source="r8o9SLYS6LZvqiN1Q-9b-64" target="r8o9SLYS6LZvqiN1Q-9b-22">
          <mxGeometry width="50" height="50" relative="1" as="geometry">
            <mxPoint x="520" y="440" as="sourcePoint" />
            <mxPoint x="620" y="360" as="targetPoint" />
          </mxGeometry>
        </mxCell>
        <mxCell id="r8o9SLYS6LZvqiN1Q-9b-73" value="" style="endArrow=none;html=1;rounded=0;entryX=0;entryY=0;entryDx=0;entryDy=0;exitX=1;exitY=1;exitDx=0;exitDy=0;" edge="1" parent="1" source="r8o9SLYS6LZvqiN1Q-9b-1" target="r8o9SLYS6LZvqiN1Q-9b-64">
          <mxGeometry width="50" height="50" relative="1" as="geometry">
            <mxPoint x="570" y="410" as="sourcePoint" />
            <mxPoint x="620" y="360" as="targetPoint" />
          </mxGeometry>
        </mxCell>
      </root>
    </mxGraphModel>
  </diagram>
</mxfile>
